<svg width="32" height="32" viewBox="0 0 32 32" fill="none" xmlns="http://www.w3.org/2000/svg">
    <path fill-rule="evenodd" clip-rule="evenodd" d="M14.72 0.0196868C14.088 0.0716069 13.4532 0.140727 13.44 0.159047C13.4312 0.171287 13.2368 0.206967 13.008 0.238327C12.7792 0.269687 12.5671 0.308487 12.5367 0.324487C12.5063 0.340487 12.3335 0.383607 12.1527 0.420407C11.9719 0.457207 11.8168 0.497687 11.808 0.510487C11.7992 0.523287 11.666 0.559847 11.512 0.591847C11.358 0.623847 11.232 0.660647 11.232 0.673527C11.232 0.686487 11.1311 0.721847 11.0077 0.752087C10.8843 0.782327 10.7764 0.818407 10.7679 0.832327C10.7592 0.846167 10.6766 0.875127 10.5841 0.896647C10.4917 0.918087 10.3512 0.966967 10.272 1.00521C10.1928 1.04345 10.0632 1.09513 9.98403 1.12001C9.90483 1.14497 9.83283 1.17457 9.82403 1.18593C9.81523 1.19729 9.73243 1.23145 9.64003 1.26185C9.54763 1.29225 9.47203 1.32841 9.47203 1.34217C9.47203 1.35601 9.39283 1.39217 9.29603 1.42257C9.19923 1.45305 9.12003 1.49105 9.12003 1.50697C9.12003 1.52297 9.10395 1.53601 9.08435 1.53601C9.03635 1.53601 8.22331 1.94265 8.14403 2.00633C8.12643 2.02041 8.05443 2.06081 7.98403 2.09601C7.91363 2.13121 7.84451 2.17801 7.83043 2.20001C7.81635 2.22201 7.78971 2.24001 7.77123 2.24001C7.73291 2.24001 7.36051 2.45913 7.31195 2.51025C7.29427 2.52881 7.22947 2.57209 7.16795 2.60641C7.10643 2.64073 7.02811 2.69473 6.99403 2.72641C6.95987 2.75809 6.91627 2.78401 6.89707 2.78401C6.87795 2.78401 6.83851 2.80921 6.80939 2.84001C6.78035 2.87081 6.68203 2.94641 6.59091 3.00801C6.49979 3.06961 6.38867 3.15241 6.34395 3.19201C6.29923 3.23161 6.25363 3.26401 6.24251 3.26401C6.23139 3.26401 6.17811 3.30361 6.12411 3.35201C6.07011 3.40041 5.97059 3.48321 5.90291 3.53601C5.75787 3.64921 5.55827 3.81449 5.49211 3.87625C5.46635 3.90033 5.36203 3.99201 5.26043 4.08001C5.02179 4.28657 4.28659 5.02177 4.08003 5.26041C3.99203 5.36201 3.90035 5.46633 3.87627 5.49209C3.81451 5.55825 3.64923 5.75785 3.53603 5.90289C3.48323 5.97057 3.40043 6.07009 3.35203 6.12409C3.30363 6.17809 3.26403 6.23137 3.26403 6.24249C3.26403 6.25361 3.23163 6.29921 3.19203 6.34393C3.15243 6.38865 3.06963 6.49977 3.00803 6.59089C2.94643 6.68201 2.87083 6.78033 2.84003 6.80937C2.80923 6.83849 2.78403 6.87793 2.78403 6.89705C2.78403 6.91625 2.75811 6.95985 2.72643 6.99401C2.69475 7.02809 2.64075 7.10641 2.60643 7.16793C2.57211 7.22945 2.52883 7.29425 2.51027 7.31193C2.45915 7.36049 2.24003 7.73289 2.24003 7.77121C2.24003 7.78969 2.22203 7.81633 2.20003 7.83041C2.17803 7.84449 2.13123 7.91361 2.09603 7.98401C2.06083 8.05441 2.02043 8.12641 2.00635 8.14401C1.94267 8.22329 1.53603 9.03633 1.53603 9.08433C1.53603 9.10393 1.52299 9.12001 1.50699 9.12001C1.49107 9.12001 1.45307 9.19921 1.42259 9.29601C1.39219 9.39281 1.35603 9.47201 1.34219 9.47201C1.32843 9.47201 1.29227 9.54761 1.26187 9.64001C1.23147 9.73241 1.19731 9.81521 1.18595 9.82401C1.17459 9.83281 1.14499 9.90481 1.12003 9.98401C1.09515 10.0632 1.04347 10.1928 1.00523 10.272C0.96699 10.3512 0.91811 10.4917 0.89667 10.5841C0.87515 10.6766 0.84619 10.7592 0.83235 10.7679C0.81843 10.7764 0.78235 10.8843 0.75211 11.0077C0.72187 11.1311 0.68651 11.232 0.67355 11.232C0.66067 11.232 0.62387 11.358 0.59187 11.512C0.55987 11.666 0.52331 11.7992 0.51051 11.808C0.49771 11.8168 0.45723 11.9719 0.42043 12.1527C0.38363 12.3335 0.34051 12.5063 0.32451 12.5367C0.30851 12.5671 0.26971 12.7792 0.23835 13.008C0.20699 13.2368 0.17131 13.4312 0.15907 13.44C-0.0269299 13.5741 -0.0278099 18.4315 0.15811 18.56C0.17091 18.5688 0.20699 18.7632 0.23835 18.992C0.26971 19.2208 0.30803 19.432 0.32347 19.4614C0.33883 19.4907 0.38011 19.6625 0.41507 19.8431C0.45011 20.0237 0.49115 20.1797 0.50627 20.1897C0.52139 20.1998 0.55987 20.334 0.59187 20.488C0.62387 20.642 0.66099 20.768 0.67427 20.768C0.68763 20.768 0.72403 20.876 0.75515 21.008C0.78627 21.14 0.82203 21.248 0.83467 21.248C0.84731 21.248 0.87547 21.3236 0.89723 21.416C0.91899 21.5084 0.96283 21.6416 0.99459 21.712C1.02635 21.7824 1.07643 21.9156 1.10587 22.008C1.13531 22.1004 1.16947 22.176 1.18187 22.176C1.19419 22.176 1.22931 22.2552 1.25979 22.352C1.29035 22.4488 1.32579 22.528 1.33867 22.528C1.35155 22.528 1.38139 22.5936 1.40507 22.6738C1.42875 22.7539 1.46491 22.8367 1.48547 22.8578C1.50595 22.8788 1.54283 22.9464 1.56739 23.008C1.59203 23.0696 1.67579 23.2424 1.75371 23.392C1.83155 23.5416 1.91771 23.7072 1.94515 23.76C1.97259 23.8128 2.00355 23.8632 2.01403 23.872C2.02443 23.8808 2.06155 23.9491 2.09651 24.0236C2.13147 24.0983 2.16835 24.1595 2.17859 24.1596C2.18875 24.1599 2.23083 24.232 2.27203 24.32C2.31323 24.408 2.35715 24.48 2.36963 24.48C2.38211 24.48 2.41027 24.5235 2.43235 24.5767C2.45435 24.63 2.48851 24.684 2.50819 24.6967C2.52795 24.7095 2.57275 24.7776 2.60787 24.848C2.64299 24.9184 2.69699 24.9948 2.72787 25.0179C2.75875 25.0408 2.78403 25.0797 2.78403 25.1043C2.78403 25.1287 2.80203 25.1603 2.82411 25.1744C2.84611 25.1885 2.88331 25.2373 2.90675 25.2829C2.93019 25.3285 2.99131 25.4149 3.04259 25.4749C3.09395 25.5349 3.13595 25.5927 3.13595 25.6034C3.13603 25.6139 3.17195 25.6643 3.21587 25.7154C3.25971 25.7663 3.32467 25.844 3.36019 25.888C3.39571 25.932 3.46787 26.0181 3.52051 26.0793C3.57323 26.1406 3.62403 26.2149 3.63347 26.2445C3.64283 26.2741 3.68595 26.3215 3.72931 26.3499C3.77259 26.3783 3.80803 26.4171 3.80803 26.4362C3.80803 26.4552 3.88003 26.5384 3.96803 26.6211C4.05603 26.7037 4.12803 26.7827 4.12803 26.7967C4.12803 26.83 5.17003 27.872 5.20331 27.872C5.21731 27.872 5.29635 27.944 5.37899 28.032C5.46163 28.12 5.54099 28.192 5.55539 28.192C5.56979 28.192 5.61819 28.2283 5.66283 28.2725C5.79195 28.4006 6.00555 28.576 6.03227 28.576C6.04571 28.576 6.09043 28.6084 6.13155 28.648C6.24123 28.7535 6.30947 28.8085 6.41659 28.8779C6.46907 28.9119 6.53139 28.9591 6.55507 28.9827C6.57875 29.0062 6.64067 29.0475 6.69275 29.0745C6.74483 29.1014 6.81547 29.1479 6.84971 29.1777C6.98387 29.2947 7.03219 29.3303 7.13811 29.3904C7.19859 29.4247 7.27595 29.4787 7.31003 29.5104C7.34419 29.5421 7.38995 29.568 7.41179 29.568C7.43363 29.568 7.47139 29.5879 7.49579 29.6123C7.52011 29.6367 7.60395 29.689 7.68203 29.7286C7.76011 29.7682 7.83123 29.8096 7.84003 29.8207C7.84883 29.8316 7.91339 29.8693 7.98355 29.9043C8.05371 29.9394 8.12883 29.9846 8.15059 30.0047C8.17235 30.025 8.30211 30.0963 8.43907 30.1633C8.57603 30.2303 8.69523 30.2939 8.70403 30.3046C8.71283 30.3152 8.80643 30.3582 8.91203 30.4C9.01763 30.4419 9.11123 30.485 9.12003 30.4959C9.14699 30.5294 9.54667 30.7131 9.68939 30.7576C9.76347 30.7807 9.82403 30.8091 9.82403 30.8208C9.82403 30.8325 9.90683 30.8677 10.008 30.8991C10.1092 30.9304 10.1992 30.9661 10.208 30.9784C10.2168 30.9907 10.332 31.0329 10.464 31.072C10.596 31.1111 10.7112 31.1532 10.72 31.1655C10.7288 31.1779 10.8368 31.2146 10.96 31.2471C11.0832 31.2796 11.1912 31.3151 11.2 31.3259C11.2088 31.3367 11.3312 31.373 11.472 31.4064C11.6128 31.4398 11.7424 31.4777 11.76 31.4906C11.7776 31.5034 11.9216 31.5393 12.08 31.5703C12.2384 31.6013 12.3752 31.6368 12.384 31.6491C12.4016 31.6738 12.8905 31.7601 13.208 31.7946C13.318 31.8065 13.408 31.8263 13.408 31.8387C13.408 31.8631 13.8795 31.9201 14.48 31.9683C14.9767 32.008 17.0233 32.008 17.52 31.9683C18.0913 31.9224 18.6059 31.8632 18.624 31.8411C18.6328 31.8304 18.8559 31.7887 19.1196 31.7484C19.3834 31.7082 19.6066 31.6653 19.6156 31.6532C19.6247 31.6411 19.7614 31.6051 19.9195 31.5732C20.0777 31.5414 20.2217 31.5043 20.2395 31.4908C20.2574 31.4774 20.3872 31.4401 20.528 31.4081C20.6688 31.3761 20.7912 31.3401 20.8 31.3281C20.8088 31.3161 20.9168 31.2796 21.04 31.2471C21.1632 31.2146 21.2712 31.1795 21.28 31.1691C21.2888 31.1587 21.3824 31.1239 21.488 31.0916C21.5936 31.0594 21.7376 31.0072 21.808 30.9758C21.8784 30.9443 21.9972 30.9004 22.072 30.8783C22.1468 30.856 22.208 30.8287 22.208 30.8174C22.208 30.8061 22.262 30.7786 22.328 30.7562C22.4867 30.7024 22.8612 30.5187 22.8747 30.4882C22.8806 30.4749 22.9094 30.4644 22.9387 30.4649C22.9981 30.4659 23.5756 30.1827 23.6422 30.12C23.6655 30.098 23.7051 30.08 23.7303 30.08C23.7555 30.08 23.8019 30.0542 23.8334 30.0227C23.865 29.9911 23.9406 29.9457 24.0014 29.9217C24.0623 29.8978 24.1266 29.8607 24.1444 29.8393C24.1623 29.818 24.2428 29.7705 24.3232 29.7339C24.4037 29.6972 24.4881 29.6449 24.5107 29.6176C24.5333 29.5903 24.569 29.568 24.5899 29.568C24.6108 29.568 24.6559 29.5421 24.69 29.5104C24.7241 29.4787 24.8024 29.4247 24.864 29.3904C24.9256 29.3561 24.9875 29.31 25.0016 29.288C25.0157 29.266 25.0445 29.2479 25.0656 29.2476C25.0868 29.2474 25.14 29.2188 25.184 29.1841C25.4669 28.9611 25.6021 28.864 25.6299 28.864C25.6475 28.864 25.6772 28.8352 25.696 28.8C25.7148 28.7648 25.7511 28.736 25.7764 28.736C25.8018 28.736 25.8461 28.7 25.875 28.656C25.9038 28.612 25.9437 28.5758 25.9637 28.5755C25.9837 28.5752 26.0504 28.5319 26.112 28.4794C26.1736 28.4267 26.2744 28.3407 26.336 28.2882C26.6482 28.0219 26.8049 27.8737 27.3393 27.3393C27.8737 26.8049 28.0219 26.6482 28.2882 26.336C28.3407 26.2744 28.4268 26.1736 28.4794 26.112C28.5319 26.0504 28.5752 25.9837 28.5756 25.9637C28.5758 25.9437 28.612 25.9038 28.656 25.875C28.7 25.8461 28.736 25.8018 28.736 25.7764C28.736 25.7511 28.7648 25.7148 28.8 25.696C28.8352 25.6772 28.864 25.6475 28.864 25.6299C28.864 25.6021 28.9611 25.4669 29.1841 25.184C29.2188 25.14 29.2474 25.0867 29.2476 25.0656C29.2479 25.0445 29.266 25.0157 29.288 25.0016C29.31 24.9875 29.3561 24.9256 29.3904 24.864C29.4247 24.8024 29.4788 24.7241 29.5104 24.69C29.5421 24.6559 29.568 24.6108 29.568 24.5899C29.568 24.569 29.5903 24.5333 29.6176 24.5107C29.6449 24.4881 29.6972 24.4037 29.7339 24.3232C29.7705 24.2427 29.818 24.1623 29.8393 24.1444C29.8607 24.1266 29.8978 24.0623 29.9217 24.0014C29.9457 23.9406 29.9911 23.865 30.0227 23.8334C30.0542 23.8019 30.08 23.7555 30.08 23.7303C30.08 23.7051 30.098 23.6655 30.12 23.6422C30.1827 23.5756 30.4659 22.9981 30.4649 22.9387C30.4644 22.9094 30.4749 22.8806 30.4882 22.8747C30.5187 22.8611 30.7024 22.4867 30.7562 22.328C30.7786 22.262 30.8061 22.208 30.8174 22.208C30.8287 22.208 30.856 22.1468 30.8783 22.072C30.9004 21.9972 30.9443 21.8784 30.9758 21.808C31.0072 21.7376 31.0594 21.5936 31.0916 21.488C31.1239 21.3824 31.1588 21.2888 31.1691 21.28C31.1795 21.2712 31.2146 21.1632 31.2471 21.04C31.2796 20.9168 31.3161 20.8088 31.3281 20.8C31.3401 20.7912 31.3761 20.6688 31.4081 20.528C31.4401 20.3872 31.4774 20.2574 31.4908 20.2395C31.5044 20.2217 31.5414 20.0777 31.5732 19.9195C31.6051 19.7614 31.6411 19.6247 31.6532 19.6156C31.6653 19.6066 31.7082 19.3834 31.7484 19.1196C31.7887 18.8559 31.8304 18.6328 31.8412 18.624C31.8632 18.6059 31.9224 18.0913 31.9683 17.52C32.008 17.0233 32.008 14.9767 31.9683 14.48C31.9201 13.8795 31.8631 13.408 31.8387 13.408C31.8263 13.408 31.8065 13.318 31.7946 13.208C31.7601 12.8905 31.6738 12.4015 31.6492 12.384C31.6368 12.3752 31.6013 12.2384 31.5703 12.08C31.5393 11.9216 31.5034 11.7776 31.4906 11.76C31.4777 11.7424 31.4398 11.6128 31.4064 11.472C31.373 11.3312 31.3368 11.2088 31.3259 11.2C31.3151 11.1912 31.2796 11.0832 31.2471 10.96C31.2146 10.8368 31.1779 10.7288 31.1655 10.72C31.1532 10.7112 31.1111 10.596 31.072 10.464C31.0329 10.332 30.9907 10.2168 30.9784 10.208C30.9661 10.1992 30.9304 10.1092 30.8991 10.008C30.8677 9.90681 30.8325 9.82401 30.8208 9.82401C30.8092 9.82401 30.7807 9.76345 30.7576 9.68937C30.7131 9.54665 30.5294 9.14697 30.4959 9.12001C30.485 9.11121 30.4419 9.01761 30.4 8.91201C30.3582 8.80641 30.3152 8.71281 30.3046 8.70401C30.2939 8.69521 30.2303 8.57601 30.1633 8.43905C30.0963 8.30209 30.025 8.17233 30.0047 8.15057C29.9846 8.12881 29.9394 8.05369 29.9043 7.98353C29.8693 7.91337 29.8316 7.84881 29.8207 7.84001C29.8096 7.83121 29.7682 7.76009 29.7286 7.68201C29.689 7.60393 29.6367 7.52009 29.6123 7.49577C29.5879 7.47137 29.568 7.43361 29.568 7.41177C29.568 7.38993 29.5421 7.34417 29.5104 7.31001C29.4788 7.27593 29.4247 7.19857 29.3904 7.13809C29.3561 7.07769 29.3028 6.99849 29.272 6.96209C29.2412 6.92577 29.1952 6.87161 29.1697 6.84169C29.1443 6.81185 29.1014 6.74481 29.0745 6.69273C29.0475 6.64065 29.0062 6.57873 28.9827 6.55505C28.9591 6.53137 28.9119 6.46905 28.8779 6.41657C28.8085 6.30945 28.7535 6.24121 28.648 6.13153C28.6084 6.09041 28.576 6.04569 28.576 6.03225C28.576 6.00553 28.4006 5.79193 28.2725 5.66281C28.2283 5.61817 28.192 5.56977 28.192 5.55537C28.192 5.54097 28.12 5.46161 28.032 5.37897C27.944 5.29633 27.872 5.21729 27.872 5.20329C27.872 5.17001 26.83 4.12801 26.7968 4.12801C26.7828 4.12801 26.7037 4.05601 26.6211 3.96801C26.5384 3.88001 26.4552 3.80801 26.4362 3.80801C26.4171 3.80801 26.3783 3.77257 26.3499 3.72929C26.3215 3.68593 26.2741 3.64281 26.2445 3.63345C26.2149 3.62401 26.1406 3.57321 26.0793 3.52049C26.0181 3.46785 25.932 3.39569 25.888 3.36017C25.844 3.32465 25.7663 3.25969 25.7154 3.21585C25.6643 3.17193 25.6139 3.13601 25.6034 3.13593C25.5927 3.13593 25.5349 3.09393 25.4749 3.04257C25.4149 2.99129 25.3285 2.93017 25.2829 2.90673C25.2373 2.88329 25.1885 2.84609 25.1744 2.82409C25.1603 2.80201 25.1287 2.78401 25.1043 2.78401C25.0797 2.78401 25.0408 2.75873 25.0179 2.72785C24.9948 2.69697 24.9184 2.64297 24.848 2.60785C24.7776 2.57273 24.7096 2.52793 24.6968 2.50817C24.684 2.48849 24.63 2.45433 24.5767 2.43233C24.5236 2.41025 24.48 2.38209 24.48 2.36961C24.48 2.35713 24.408 2.31321 24.32 2.27201C24.232 2.23081 24.1599 2.18873 24.1596 2.17857C24.1595 2.16833 24.0983 2.13145 24.0236 2.09649C23.9491 2.06153 23.8808 2.02441 23.872 2.01401C23.8632 2.00353 23.8128 1.97257 23.76 1.94513C23.7072 1.91769 23.5416 1.83153 23.392 1.75369C23.2424 1.67577 23.0696 1.59201 23.008 1.56737C22.9464 1.54281 22.8788 1.50593 22.8578 1.48545C22.8367 1.46489 22.7539 1.42873 22.6738 1.40505C22.5936 1.38137 22.528 1.35153 22.528 1.33865C22.528 1.32577 22.4488 1.29033 22.352 1.25977C22.2552 1.22929 22.176 1.19417 22.176 1.18185C22.176 1.16945 22.1004 1.13529 22.008 1.10585C21.9156 1.07641 21.7824 1.02633 21.712 0.994567C21.6416 0.962807 21.5084 0.918967 21.416 0.897207C21.3236 0.875447 21.248 0.847287 21.248 0.834647C21.248 0.822007 21.14 0.786247 21.008 0.755127C20.876 0.724007 20.768 0.687607 20.768 0.674247C20.768 0.660967 20.642 0.623847 20.488 0.591847C20.334 0.559847 20.1998 0.521367 20.1897 0.506247C20.1797 0.491127 20.0237 0.450087 19.8431 0.415047C19.6625 0.380087 19.4907 0.338807 19.4614 0.323447C19.432 0.308007 19.2208 0.269687 18.992 0.238327C18.7632 0.206967 18.5688 0.170967 18.56 0.158407C18.4953 0.0658469 15.4827 -0.0430332 14.72 0.0196868ZM17.688 1.28177C17.9036 1.30377 18.08 1.33401 18.08 1.34889C18.08 1.36377 18.1251 1.37601 18.1802 1.37601C18.3239 1.37601 18.9163 1.46953 18.992 1.50417C19.0272 1.52025 19.2216 1.56521 19.424 1.60409C19.6264 1.64297 19.7992 1.68417 19.808 1.69553C19.8168 1.70697 19.9383 1.74105 20.0781 1.77129C20.2179 1.80153 20.3475 1.83889 20.3661 1.85425C20.3848 1.86969 20.4936 1.90649 20.608 1.93601C20.7224 1.96553 20.8304 2.00089 20.848 2.01449C20.8656 2.02809 20.9664 2.06545 21.072 2.09761C21.1776 2.12977 21.2712 2.16457 21.28 2.17513C21.2888 2.18561 21.4004 2.22857 21.528 2.27049C21.6556 2.31249 21.76 2.35577 21.76 2.36681C21.76 2.37777 21.8392 2.41369 21.936 2.44657C22.0328 2.47945 22.112 2.51545 22.112 2.52657C22.112 2.53769 22.1912 2.57369 22.288 2.60657C22.3848 2.63945 22.464 2.67705 22.464 2.69001C22.464 2.70297 22.536 2.73945 22.624 2.77113C22.712 2.80273 22.784 2.83721 22.784 2.84761C22.784 2.85801 22.8632 2.90137 22.96 2.94401C23.0568 2.98665 23.136 3.03089 23.136 3.04241C23.136 3.05393 23.2008 3.08809 23.28 3.11833C23.3592 3.14857 23.424 3.18473 23.424 3.19881C23.424 3.21281 23.4684 3.24265 23.5227 3.26513C23.5771 3.28761 23.6383 3.32177 23.6588 3.34105C23.6792 3.36025 23.7608 3.41089 23.84 3.45353C23.9192 3.49617 23.9955 3.55017 24.0096 3.57353C24.0237 3.59689 24.0534 3.61601 24.0756 3.61601C24.0978 3.61601 24.1439 3.64193 24.178 3.67361C24.2121 3.70529 24.2904 3.75929 24.352 3.79361C24.4136 3.82793 24.4729 3.86809 24.4837 3.88289C24.4945 3.89769 24.532 3.92649 24.5671 3.94689C24.6254 3.98081 24.8005 4.10721 24.9847 4.24833C25.0248 4.27897 25.0955 4.33281 25.1417 4.36801C25.188 4.40321 25.2655 4.47161 25.3139 4.52001C25.3622 4.56841 25.4165 4.60801 25.4345 4.60801C25.4526 4.60801 25.4936 4.64049 25.5257 4.68017C25.5578 4.71985 25.62 4.77545 25.664 4.80369C25.8748 4.93913 26.9104 5.98329 27.2948 6.44801C27.3676 6.53601 27.4588 6.64593 27.4976 6.69233C27.5364 6.73873 27.5968 6.81529 27.632 6.86241C27.6672 6.90953 27.7207 6.97545 27.7509 7.00897C27.7811 7.04241 27.8404 7.12457 27.8826 7.19137C27.9248 7.25825 27.9829 7.33249 28.0117 7.35641C28.0405 7.38033 28.064 7.42017 28.064 7.44497C28.064 7.46969 28.0842 7.49777 28.1089 7.50721C28.1335 7.51673 28.1619 7.54865 28.1719 7.57825C28.1874 7.62369 28.3555 7.87665 28.4416 7.98401C28.4556 8.00161 28.5025 8.08081 28.5456 8.16001C28.5887 8.23921 28.6398 8.32081 28.659 8.34129C28.6783 8.36177 28.7124 8.42297 28.7349 8.47729C28.7574 8.53161 28.7872 8.57601 28.8012 8.57601C28.8153 8.57601 28.8511 8.63985 28.8809 8.71793C28.9107 8.79601 28.9523 8.86649 28.9733 8.87457C28.9943 8.88265 29.0311 8.94833 29.0549 9.02057C29.0787 9.09289 29.1086 9.15201 29.1212 9.15201C29.1339 9.15201 29.1765 9.23841 29.216 9.34401C29.2556 9.44961 29.2976 9.53601 29.3096 9.53601C29.3215 9.53601 29.3573 9.60801 29.3889 9.69601C29.4206 9.78401 29.4583 9.85601 29.473 9.85601C29.4875 9.85601 29.5225 9.93521 29.5507 10.032C29.5788 10.1288 29.6127 10.208 29.6259 10.208C29.6392 10.208 29.6699 10.2764 29.6941 10.36C29.7183 10.4436 29.7707 10.5843 29.8106 10.6725C29.8504 10.7608 29.8931 10.876 29.9053 10.9285C29.9176 10.9811 29.9467 11.0546 29.9699 11.0919C29.9931 11.1293 30.0354 11.2517 30.0637 11.3639C30.0921 11.4762 30.1347 11.6112 30.1585 11.664C30.1823 11.7168 30.2191 11.8464 30.2406 11.952C30.2619 12.0576 30.2896 12.1512 30.3019 12.16C30.3143 12.1688 30.357 12.3416 30.3968 12.544C30.4367 12.7464 30.481 12.9347 30.4953 12.9623C30.5096 12.9899 30.5476 13.1987 30.5796 13.4263C30.6117 13.6539 30.6466 13.8472 30.6571 13.856C30.6913 13.8847 30.7562 14.6271 30.7751 15.208C30.7853 15.5204 30.8059 15.776 30.8208 15.776C30.8358 15.776 30.848 15.8768 30.848 16C30.848 16.1232 30.8359 16.224 30.821 16.224C30.806 16.224 30.785 16.4868 30.7742 16.808C30.7532 17.4302 30.694 18.1176 30.6591 18.144C30.6475 18.1528 30.6117 18.3462 30.5796 18.5738C30.5476 18.8014 30.5097 19.0102 30.4955 19.0378C30.4812 19.0654 30.4373 19.2536 30.3979 19.456C30.3585 19.6584 30.3168 19.8312 30.3053 19.84C30.2938 19.8488 30.2572 19.9784 30.224 20.128C30.1908 20.2776 30.1534 20.4072 30.1408 20.4161C30.1282 20.425 30.0941 20.5239 30.065 20.6362C30.0359 20.7483 29.993 20.8707 29.9696 20.9081C29.9463 20.9455 29.9083 21.0516 29.8855 21.144C29.8627 21.2364 29.8351 21.312 29.8242 21.312C29.8134 21.312 29.7693 21.4199 29.7263 21.5519C29.6832 21.6839 29.6376 21.7919 29.6249 21.7919C29.6122 21.7919 29.5788 21.8712 29.5507 21.968C29.5225 22.0648 29.488 22.144 29.4741 22.144C29.4601 22.144 29.4232 22.2124 29.392 22.296C29.3608 22.3796 29.3176 22.4696 29.296 22.496C29.2744 22.5224 29.2312 22.6124 29.2 22.696C29.1688 22.7796 29.1332 22.848 29.1208 22.848C29.1084 22.848 29.0787 22.9071 29.0549 22.9795C29.0311 23.0517 28.9943 23.1174 28.9733 23.1255C28.9523 23.1335 28.9107 23.204 28.8809 23.2821C28.8511 23.3602 28.8153 23.424 28.8012 23.424C28.7872 23.424 28.7567 23.4708 28.7334 23.528C28.7101 23.5852 28.6508 23.6882 28.6016 23.7568C28.5523 23.8255 28.512 23.8963 28.512 23.9141C28.512 23.932 28.4903 23.9695 28.4636 23.9973C28.39 24.0743 28.192 24.3782 28.192 24.4141C28.192 24.4315 28.1632 24.4612 28.128 24.48C28.0928 24.4988 28.064 24.5322 28.064 24.554C28.064 24.5759 28.0208 24.6411 27.968 24.6989C27.9152 24.7567 27.872 24.8139 27.872 24.826C27.8719 24.8381 27.8396 24.8865 27.8 24.9336C27.7604 24.9807 27.692 25.0655 27.648 25.1221C27.604 25.1787 27.5361 25.2626 27.4971 25.3085C27.4581 25.3544 27.3739 25.4568 27.31 25.536C27.0086 25.9099 25.8055 27.136 25.7402 27.136C25.7335 27.136 25.728 25.8472 25.728 24.272V21.408H27.392C28.3072 21.408 29.056 21.3967 29.056 21.383C29.056 21.3692 29.119 21.3394 29.196 21.3167C29.3099 21.283 29.3472 21.252 29.396 21.15C29.429 21.0811 29.4668 21.0246 29.48 21.0244C29.4932 21.0242 29.504 20.9316 29.504 20.8187C29.504 20.7058 29.4932 20.6086 29.48 20.6027C29.4668 20.5968 29.4295 20.5397 29.3971 20.4759C29.3646 20.4119 29.307 20.3454 29.2691 20.3279C29.2311 20.3105 29.1208 20.2599 29.024 20.2155C28.9272 20.1711 28.7868 20.1165 28.712 20.0943C28.6372 20.0721 28.576 20.0437 28.576 20.0311C28.576 20.0187 28.4896 19.9842 28.384 19.9546C28.2784 19.925 28.192 19.8886 28.192 19.8739C28.192 19.8591 28.1524 19.8373 28.104 19.8254C28.0556 19.8135 27.9271 19.7622 27.8186 19.7112C27.71 19.6603 27.5804 19.6088 27.5306 19.597C27.4807 19.5851 27.4184 19.5571 27.392 19.5346C27.3656 19.5122 27.2684 19.4692 27.176 19.4392C27.0836 19.4092 27.008 19.3739 27.008 19.3607C27.008 19.3475 26.9288 19.3119 26.832 19.2815C26.7352 19.251 26.656 19.2159 26.656 19.2035C26.656 19.1911 26.602 19.1617 26.536 19.1383C26.47 19.1148 26.313 19.0471 26.1871 18.9879C26.0612 18.9285 25.9424 18.88 25.9231 18.88C25.9038 18.88 25.888 18.8686 25.888 18.8547C25.888 18.8407 25.8088 18.8023 25.712 18.7695C25.6152 18.7366 25.536 18.6983 25.536 18.6844C25.536 18.6706 25.4568 18.6343 25.36 18.6038C25.2632 18.5733 25.184 18.538 25.184 18.5254C25.184 18.5127 25.112 18.4766 25.024 18.4449C24.936 18.4133 24.864 18.377 24.864 18.3643C24.864 18.3516 24.7704 18.3101 24.656 18.272C24.5416 18.2339 24.448 18.1895 24.448 18.1734C24.448 18.1572 24.4325 18.144 24.4135 18.144C24.3744 18.144 24.0331 17.9876 23.584 17.764C23.4168 17.6807 23.2188 17.5931 23.144 17.5692C23.0692 17.5453 23.008 17.5151 23.008 17.5021C23.008 17.4891 22.936 17.4526 22.848 17.4209C22.76 17.3893 22.688 17.3535 22.688 17.3414C22.688 17.3293 22.614 17.2952 22.5236 17.2656C22.4332 17.236 22.3387 17.1912 22.3134 17.1659C22.2881 17.1407 22.2469 17.12 22.2217 17.12C22.1826 17.12 22.176 16.8043 22.176 14.912V12.704H22.32C22.4743 12.704 22.72 12.5195 22.72 12.4038C22.72 12.3753 22.7344 12.352 22.752 12.352C22.7701 12.352 22.784 12.2615 22.784 12.1444C22.784 11.9318 22.7635 11.885 22.6031 11.7304C22.4791 11.6111 22.4443 11.5917 22.3138 11.5697L22.1849 11.5479L22.164 11.2859C22.1351 10.9225 22.0767 10.5183 22.0476 10.48C22.0342 10.4624 22.0136 10.3832 22.0018 10.304C21.9651 10.0584 21.909 9.80873 21.8866 9.79201C21.8748 9.78321 21.8405 9.66441 21.8104 9.52801C21.7803 9.39161 21.7449 9.28001 21.7317 9.28001C21.7185 9.28001 21.6823 9.17201 21.6511 9.04001C21.62 8.90801 21.5839 8.80001 21.5709 8.80001C21.5579 8.80001 21.5134 8.69201 21.472 8.56001C21.4307 8.42801 21.3872 8.32001 21.3756 8.32001C21.364 8.32001 21.3275 8.24081 21.2946 8.14401C21.2617 8.04721 21.2256 7.96801 21.2145 7.96801C21.2034 7.96801 21.1747 7.90889 21.1509 7.83657C21.1271 7.76433 21.0903 7.69865 21.0693 7.69057C21.0483 7.68249 21.006 7.61009 20.9753 7.52969C20.9446 7.44921 20.8926 7.35657 20.8597 7.32369C20.8269 7.29089 20.8 7.25105 20.8 7.23521C20.8 7.20081 20.5968 6.88521 20.5283 6.81329C20.5018 6.78545 20.48 6.74601 20.48 6.72561C20.48 6.70521 20.4512 6.67057 20.416 6.64857C20.3808 6.62657 20.352 6.59153 20.352 6.57065C20.352 6.54977 20.316 6.50433 20.272 6.46969C20.228 6.43513 20.192 6.39593 20.192 6.38273C20.192 6.28929 19.214 5.30713 19.0669 5.25273C19.0501 5.24657 18.9976 5.20593 18.9502 5.16249C18.7836 5.00985 18.7673 4.99753 18.68 4.95777C18.6316 4.93577 18.592 4.90809 18.592 4.89633C18.592 4.88457 18.52 4.84121 18.432 4.80001C18.344 4.75881 18.272 4.71529 18.272 4.70337C18.272 4.69145 18.2108 4.65473 18.136 4.62177C18.0612 4.58873 17.9927 4.55185 17.9839 4.53977C17.9751 4.52769 17.9031 4.49233 17.8239 4.46113C17.7447 4.42993 17.6728 4.39505 17.664 4.38361C17.6552 4.37209 17.5688 4.33521 17.472 4.30161C17.3752 4.26801 17.288 4.22977 17.2783 4.21657C17.2537 4.18321 16.7772 4.06401 16.6685 4.06401H16.5792L16.5696 3.27881C16.5632 2.75265 16.5484 2.48609 16.5248 2.47081C16.5055 2.45825 16.4725 2.41561 16.4516 2.37593C16.3327 2.14993 15.6394 2.15425 15.553 2.38153C15.5371 2.42321 15.5052 2.46361 15.4821 2.47129C15.4492 2.48225 15.4379 2.65737 15.43 3.27217L15.4199 4.05905L15.286 4.07977C15.1259 4.10441 14.8733 4.18257 14.7564 4.24361C14.71 4.26777 14.6615 4.28769 14.6487 4.28785C14.6359 4.28793 14.5178 4.33841 14.3862 4.40001C14.2547 4.46161 14.1319 4.51201 14.1135 4.51201C14.0951 4.51201 14.08 4.52545 14.08 4.54185C14.08 4.55825 14.0476 4.58129 14.008 4.59305C13.9684 4.60481 13.8856 4.64673 13.824 4.68625C13.7624 4.72569 13.6076 4.81953 13.48 4.89465C13.3524 4.96985 13.248 5.04169 13.248 5.05425C13.248 5.06689 13.2084 5.09745 13.16 5.12217C13.1116 5.14689 13.0408 5.19609 13.0027 5.23153C12.9647 5.26697 12.8792 5.33921 12.8128 5.39201C12.4627 5.67057 11.808 6.34025 11.808 6.41993C11.808 6.43569 11.7792 6.46657 11.744 6.48857C11.7088 6.51057 11.68 6.54929 11.68 6.57473C11.68 6.60009 11.6574 6.63353 11.6297 6.64897C11.6019 6.66449 11.5623 6.70665 11.5417 6.74265C11.521 6.77865 11.4464 6.89273 11.376 6.99609C11.3056 7.09945 11.2192 7.24073 11.184 7.31001C11.1488 7.37921 11.0948 7.46201 11.064 7.49393C11.0332 7.52585 11.008 7.57257 11.008 7.59769C11.008 7.62289 10.989 7.66249 10.9657 7.68577C10.9424 7.70905 10.8973 7.79641 10.8654 7.88001C10.8335 7.96361 10.7949 8.03201 10.7797 8.03201C10.7645 8.03201 10.752 8.04753 10.752 8.06649C10.752 8.08545 10.7028 8.20425 10.6427 8.33049C10.5827 8.45673 10.5155 8.62121 10.4937 8.69601C10.4718 8.77081 10.4442 8.83201 10.4324 8.83201C10.4204 8.83201 10.3839 8.94001 10.351 9.07201C10.3181 9.20401 10.2807 9.31201 10.2678 9.31201C10.2549 9.31201 10.2198 9.42361 10.1896 9.56001C10.1595 9.69641 10.1246 9.81521 10.1119 9.82401C10.0992 9.83281 10.0643 9.97681 10.0342 10.144C10.0041 10.3112 9.95963 10.52 9.93547 10.608C9.89947 10.7386 9.82403 11.3479 9.82403 11.5076C9.82403 11.5311 9.76347 11.5572 9.68003 11.5697C9.60083 11.5815 9.53603 11.6018 9.53603 11.6145C9.53603 11.6273 9.50195 11.6533 9.46019 11.6723C9.29507 11.7475 9.10587 12.352 9.24739 12.352C9.26467 12.352 9.28771 12.3874 9.29851 12.4306C9.33291 12.5675 9.52603 12.704 9.68515 12.704H9.82403V14.9523V17.2004L9.68803 17.2428C9.61323 17.2662 9.46587 17.3273 9.36051 17.3787C9.25515 17.43 9.14355 17.472 9.11251 17.472C9.08147 17.472 9.05603 17.4852 9.05603 17.5014C9.05603 17.5175 8.96243 17.5619 8.84803 17.6C8.73363 17.6381 8.64003 17.679 8.64003 17.6908C8.64003 17.7027 8.58019 17.7311 8.50699 17.7539C8.38811 17.7911 8.26251 17.8453 7.82403 18.0488C7.75363 18.0815 7.65643 18.1179 7.60803 18.1296C7.55963 18.1414 7.52003 18.1627 7.52003 18.1769C7.52003 18.1911 7.42643 18.2339 7.31203 18.272C7.19763 18.3101 7.10403 18.3527 7.10403 18.3667C7.10403 18.3806 7.06275 18.4003 7.01227 18.4103C6.96179 18.4205 6.81123 18.4799 6.67771 18.5423C6.54419 18.6049 6.41891 18.656 6.39923 18.656C6.37955 18.656 6.34371 18.6758 6.31955 18.6999C6.29531 18.7241 6.20995 18.7633 6.12979 18.787C6.04963 18.8107 5.98403 18.8393 5.98403 18.8507C5.98403 18.862 5.91563 18.8956 5.83203 18.9253C5.67475 18.9811 5.57019 19.0269 5.21603 19.1947C5.10163 19.2489 4.96843 19.3026 4.92003 19.3141C4.87163 19.3255 4.83203 19.3467 4.83203 19.3609C4.83203 19.3752 4.75675 19.4119 4.66475 19.4424C4.57275 19.473 4.48051 19.515 4.45979 19.5357C4.43907 19.5564 4.34155 19.5987 4.24307 19.6296C4.14459 19.6607 4.06403 19.6962 4.06403 19.7087C4.06403 19.7211 3.99203 19.7573 3.90403 19.7889C3.81603 19.8206 3.74403 19.8563 3.74403 19.8683C3.74403 19.8803 3.67843 19.9094 3.59827 19.9331C3.51811 19.9567 3.43411 19.9945 3.41163 20.017C3.38915 20.0395 3.30715 20.0798 3.22939 20.1066C2.83923 20.2412 2.56003 20.4424 2.56003 20.589C2.56003 20.6171 2.54563 20.64 2.52803 20.64C2.51043 20.64 2.49603 20.7192 2.49603 20.816C2.49603 20.9128 2.51043 20.992 2.52803 20.992C2.54563 20.992 2.56003 21.0184 2.56003 21.0507C2.56003 21.1267 2.77731 21.344 2.85339 21.344C2.88563 21.344 2.91203 21.3584 2.91203 21.376C2.91203 21.397 3.49339 21.408 4.59203 21.408H6.27203V24.272C6.27203 25.8472 6.26539 27.136 6.25731 27.136C6.24923 27.136 6.17523 27.064 6.09291 26.976C6.01059 26.888 5.93243 26.816 5.91923 26.816C5.88915 26.816 5.18403 26.113 5.18403 26.0831C5.18403 26.0711 5.11459 25.9957 5.02971 25.9156C4.94483 25.8355 4.84483 25.7209 4.80755 25.661C4.77019 25.6011 4.71003 25.5339 4.67387 25.5118C4.63763 25.4896 4.60803 25.4516 4.60803 25.4275C4.60803 25.4032 4.57203 25.3598 4.52803 25.331C4.48403 25.3021 4.44803 25.2625 4.44803 25.243C4.44803 25.2234 4.41563 25.1746 4.37603 25.1345C4.33643 25.0944 4.27939 25.0279 4.24931 24.9868C4.21915 24.9457 4.14355 24.8435 4.08131 24.7598C4.01899 24.676 3.96803 24.594 3.96803 24.5775C3.96803 24.5611 3.94275 24.5288 3.91187 24.5059C3.88099 24.4828 3.82731 24.41 3.79259 24.344C3.75787 24.278 3.72003 24.224 3.70843 24.224C3.69683 24.224 3.66339 24.1736 3.63419 24.112C3.60491 24.0504 3.56979 24 3.55603 24C3.54227 24 3.49723 23.928 3.45603 23.84C3.41483 23.752 3.37131 23.68 3.35939 23.68C3.34747 23.68 3.31179 23.6224 3.28003 23.552C3.24827 23.4816 3.21307 23.424 3.20171 23.424C3.19043 23.424 3.15443 23.3592 3.12179 23.28C3.08907 23.2008 3.05379 23.1359 3.04323 23.1357C3.03267 23.1355 2.98891 23.0563 2.94595 22.9597C2.90299 22.8631 2.85899 22.784 2.84827 22.784C2.83747 22.784 2.80275 22.712 2.77115 22.624C2.73947 22.536 2.70259 22.464 2.68923 22.464C2.67579 22.464 2.63987 22.3848 2.60947 22.288C2.57899 22.1912 2.54387 22.112 2.53139 22.112C2.51891 22.112 2.48179 22.0364 2.44899 21.944C2.41619 21.8516 2.37979 21.7688 2.36819 21.76C2.35667 21.7512 2.31251 21.6432 2.27019 21.52C2.22787 21.3968 2.18491 21.2888 2.17467 21.28C2.16443 21.2712 2.12979 21.1776 2.09763 21.072C2.06547 20.9664 2.02811 20.8656 2.01451 20.848C2.00091 20.8304 1.96555 20.7224 1.93603 20.608C1.90651 20.4936 1.86971 20.3847 1.85427 20.3661C1.83891 20.3475 1.80155 20.2179 1.77131 20.0781C1.74107 19.9383 1.70699 19.8168 1.69555 19.808C1.68419 19.7992 1.64299 19.6264 1.60411 19.424C1.56523 19.2216 1.52027 19.0272 1.50419 18.992C1.46955 18.9163 1.37603 18.3239 1.37603 18.1802C1.37603 18.1251 1.36347 18.08 1.34819 18.08C1.33283 18.08 1.30043 17.8676 1.27619 17.608C1.18731 16.6574 1.24075 13.92 1.34819 13.92C1.36347 13.92 1.37603 13.8831 1.37603 13.8379C1.37603 13.7043 1.47739 13.0428 1.50315 13.008C1.51619 12.9904 1.56003 12.8032 1.60059 12.592C1.64115 12.3808 1.68339 12.2008 1.69451 12.192C1.70555 12.1832 1.74099 12.0608 1.77323 11.92C1.80547 11.7792 1.84315 11.6496 1.85707 11.632C1.87091 11.6144 1.90651 11.5064 1.93611 11.3921C1.96571 11.2778 2.00011 11.177 2.01251 11.1681C2.03947 11.149 2.14403 10.8279 2.14403 10.7643C2.14403 10.7399 2.15723 10.72 2.17347 10.72C2.18963 10.72 2.23491 10.612 2.27411 10.48C2.31331 10.348 2.35635 10.24 2.36971 10.24C2.38315 10.24 2.41899 10.1608 2.44947 10.064C2.47987 9.96721 2.51587 9.88801 2.52947 9.88801C2.54299 9.88801 2.57899 9.80881 2.60947 9.71201C2.63987 9.61521 2.67579 9.53601 2.68923 9.53601C2.70259 9.53601 2.73947 9.46401 2.77115 9.37601C2.80275 9.28801 2.83779 9.21601 2.84891 9.21601C2.86003 9.21601 2.90387 9.14041 2.94643 9.04801C2.98899 8.95561 3.04187 8.86097 3.06395 8.83769C3.08595 8.81449 3.10403 8.78105 3.10403 8.76345C3.10403 8.74593 3.14523 8.67137 3.19563 8.59777C3.24603 8.52417 3.29739 8.43161 3.30979 8.39201C3.32219 8.35241 3.34331 8.32001 3.35675 8.32001C3.37011 8.32001 3.41483 8.24801 3.45603 8.16001C3.49723 8.07201 3.54227 8.00001 3.55603 8.00001C3.56979 8.00001 3.60491 7.94961 3.63419 7.88801C3.66339 7.82641 3.69683 7.77601 3.70843 7.77601C3.72003 7.77601 3.75787 7.72201 3.79259 7.65601C3.82731 7.59001 3.88099 7.51721 3.91187 7.49417C3.94275 7.47121 3.96803 7.43889 3.96803 7.42249C3.96803 7.38793 4.16203 7.11889 4.25619 7.02289C4.29131 6.98705 4.32003 6.94081 4.32003 6.92001C4.32003 6.89921 4.34883 6.86681 4.38403 6.84801C4.41923 6.82921 4.44803 6.79681 4.44803 6.77609C4.44803 6.75537 4.48483 6.70185 4.52987 6.65721C4.65771 6.53033 4.86403 6.29281 4.86403 6.27249C4.86403 6.21945 6.21947 4.86401 6.27251 4.86401C6.29283 4.86401 6.53035 4.65769 6.65723 4.52985C6.70187 4.48481 6.75539 4.44801 6.77611 4.44801C6.79683 4.44801 6.82923 4.41921 6.84803 4.38401C6.86683 4.34881 6.89923 4.32001 6.92003 4.32001C6.94083 4.32001 6.98707 4.29129 7.02291 4.25617C7.11891 4.16201 7.38795 3.96801 7.42251 3.96801C7.43891 3.96801 7.47123 3.94273 7.49419 3.91185C7.51723 3.88097 7.59003 3.82729 7.65603 3.79257C7.72203 3.75785 7.77603 3.72001 7.77603 3.70841C7.77603 3.69681 7.82643 3.66337 7.88803 3.63417C7.94963 3.60489 8.00003 3.56977 8.00003 3.55601C8.00003 3.54225 8.07203 3.49721 8.16003 3.45601C8.24803 3.41481 8.32003 3.37009 8.32003 3.35673C8.32003 3.34329 8.35243 3.32217 8.39203 3.30977C8.43163 3.29737 8.52419 3.24601 8.59779 3.19561C8.67139 3.14521 8.74595 3.10401 8.76347 3.10401C8.78107 3.10401 8.81451 3.08593 8.83771 3.06393C8.86099 3.04185 8.95563 2.98897 9.04803 2.94641C9.14043 2.90385 9.21603 2.86001 9.21603 2.84889C9.21603 2.83777 9.28803 2.80273 9.37603 2.77113C9.46403 2.73945 9.53603 2.70257 9.53603 2.68921C9.53603 2.67577 9.61523 2.63985 9.71203 2.60945C9.80883 2.57897 9.88803 2.54297 9.88803 2.52945C9.88803 2.51585 9.96723 2.47985 10.064 2.44945C10.1608 2.41897 10.24 2.38313 10.24 2.36969C10.24 2.35633 10.348 2.31329 10.48 2.27409C10.612 2.23489 10.72 2.18961 10.72 2.17345C10.72 2.15721 10.7373 2.14401 10.7584 2.14401C10.8283 2.14401 11.168 2.03425 11.168 2.01161C11.168 1.99945 11.276 1.96401 11.408 1.93289C11.54 1.90177 11.648 1.86689 11.648 1.85537C11.648 1.84393 11.7668 1.80777 11.912 1.77505C12.0572 1.74241 12.1832 1.70641 12.192 1.69497C12.2008 1.68361 12.3808 1.64113 12.592 1.60057C12.8032 1.56001 12.9904 1.51617 13.008 1.50313C13.0428 1.47737 13.7044 1.37601 13.8379 1.37601C13.8831 1.37601 13.92 1.36345 13.92 1.34817C13.92 1.33281 14.1252 1.30385 14.376 1.28377C14.6268 1.26361 14.8824 1.24169 14.944 1.23489C15.1896 1.20777 17.3206 1.24417 17.688 1.28177ZM16.7977 5.29521C16.8713 5.32113 17.0227 5.38593 17.1343 5.43921C17.2459 5.49241 17.3531 5.53601 17.3726 5.53601C17.3921 5.53601 17.408 5.54849 17.408 5.56369C17.408 5.57889 17.4728 5.61609 17.552 5.64633C17.6312 5.67657 17.696 5.71233 17.696 5.72577C17.696 5.73929 17.7528 5.77585 17.8221 5.80713C17.8915 5.83841 17.9559 5.88385 17.9651 5.90801C17.9744 5.93225 17.999 5.95201 18.0197 5.95201C18.0404 5.95201 18.1189 6.00241 18.1941 6.06401C18.2693 6.12561 18.3396 6.17601 18.3502 6.17601C18.4065 6.17601 19.264 7.03937 19.264 7.09609C19.264 7.10801 19.2931 7.14705 19.3288 7.18289C19.4342 7.28889 19.6154 7.53329 19.6157 7.57001C19.6159 7.58865 19.6419 7.63185 19.6736 7.66601C19.7053 7.70009 19.7593 7.77817 19.7936 7.83945C19.8279 7.90073 19.874 7.97017 19.896 7.99369C19.918 8.01729 19.936 8.05441 19.936 8.07625C19.936 8.09809 19.9619 8.14385 19.9935 8.17801C20.0252 8.21209 20.0767 8.30481 20.1082 8.38401C20.1396 8.46321 20.1912 8.57121 20.2228 8.62401C20.2544 8.67681 20.2985 8.77761 20.3207 8.84801C20.3431 8.91841 20.3709 8.98321 20.3827 8.99201C20.3944 9.00081 20.4296 9.09081 20.461 9.19201C20.4923 9.29321 20.5279 9.37601 20.5399 9.37601C20.5519 9.37601 20.5886 9.48041 20.6212 9.60801C20.6539 9.73561 20.6905 9.84721 20.7025 9.85601C20.7145 9.86481 20.7572 10.0304 20.7974 10.224C20.8375 10.4176 20.8831 10.6048 20.8988 10.64C20.9242 10.6969 21.024 11.3873 21.024 11.5056C21.024 11.5459 20.3655 11.552 15.9996 11.552H10.9753L10.9911 11.432C10.9999 11.366 11.0233 11.1752 11.0431 11.008C11.063 10.8408 11.0892 10.6968 11.1015 10.688C11.1136 10.6792 11.1565 10.5065 11.1967 10.3042C11.2367 10.1019 11.2807 9.92905 11.2942 9.92017C11.3077 9.91129 11.3368 9.82481 11.359 9.72801C11.3811 9.63121 11.4174 9.52289 11.4395 9.48737C11.4617 9.45185 11.5065 9.33305 11.539 9.22337C11.5715 9.11369 11.609 9.02401 11.6222 9.02401C11.6355 9.02401 11.6692 8.94481 11.6974 8.84801C11.7255 8.75121 11.7602 8.67201 11.7744 8.67201C11.7886 8.67201 11.8325 8.58561 11.872 8.48001C11.9115 8.37441 11.9553 8.28801 11.9693 8.28801C11.9833 8.28801 12.0191 8.22417 12.0489 8.14609C12.0787 8.06801 12.1231 7.99641 12.1476 7.98705C12.172 7.97769 12.192 7.95329 12.192 7.93281C12.192 7.91241 12.2424 7.82553 12.304 7.73977C12.3656 7.65401 12.416 7.57105 12.416 7.55537C12.416 7.53969 12.4376 7.51857 12.464 7.50841C12.4904 7.49833 12.5123 7.47153 12.5125 7.44905C12.5128 7.42649 12.5702 7.34321 12.64 7.26401C12.7099 7.18481 12.7672 7.11081 12.7675 7.09953C12.7691 7.03225 13.7524 6.11201 13.8227 6.11201C13.8422 6.11201 13.8661 6.09097 13.876 6.06521C13.8859 6.03953 13.9189 6.01057 13.9493 6.00089C13.9798 5.99121 14.0339 5.95617 14.0694 5.92305C14.105 5.88993 14.1831 5.83769 14.2431 5.80697C14.303 5.77625 14.3592 5.74145 14.368 5.72977C14.3905 5.69969 14.9307 5.44001 14.9706 5.44001C14.9887 5.44001 15.0225 5.42145 15.0457 5.39873C15.1963 5.25161 16.4622 5.17681 16.7977 5.29521ZM21.024 14.6422V16.5803L20.952 16.5579C20.9124 16.5456 20.8755 16.5239 20.87 16.5097C20.8645 16.4955 20.7853 16.4595 20.694 16.4298C20.6027 16.4001 20.5064 16.3583 20.48 16.3367C20.4536 16.3153 20.4068 16.2888 20.376 16.2779C20.324 16.2595 20.32 16.1707 20.32 15.0298C20.32 13.5436 20.3 13.4612 19.9193 13.3759C19.6224 13.3093 19.232 13.476 19.232 13.6693C19.232 13.7016 19.2176 13.728 19.2 13.728C19.1794 13.728 19.168 14.0854 19.168 14.736C19.168 15.3399 19.156 15.744 19.1381 15.744C19.0913 15.744 18.9312 15.6787 18.9127 15.652C18.9035 15.6388 18.8096 15.6015 18.704 15.5691C18.4505 15.4913 18.4652 15.5461 18.4637 14.672C18.4624 13.8667 18.4399 13.6722 18.3354 13.56C18.3006 13.5226 18.272 13.4807 18.272 13.4669C18.272 13.4163 17.9158 13.3374 17.7799 13.3578C17.6064 13.3838 17.4487 13.481 17.4 13.5919C17.3787 13.6404 17.3467 13.6903 17.3287 13.7028C17.3094 13.7163 17.2887 13.9908 17.278 14.3748C17.268 14.7319 17.2572 15.0089 17.254 14.9904C17.2507 14.9719 17.14 14.9299 17.008 14.8971C16.876 14.8642 16.768 14.8271 16.768 14.8147C16.768 14.8022 16.7258 14.7835 16.6742 14.7732L16.5803 14.7545L16.5702 14.2147L16.56 13.6749L16.464 13.5604C16.2179 13.2668 15.5299 13.3113 15.5211 13.6214C15.5205 13.6419 15.502 13.6647 15.48 13.6719C15.4507 13.6817 15.4373 13.8272 15.4299 14.2159L15.4198 14.7466L15.2619 14.7683C15.1751 14.7803 15.104 14.8008 15.104 14.8139C15.104 14.8271 15.0428 14.8555 14.968 14.877C14.8932 14.8985 14.8077 14.9231 14.7779 14.9316C14.7287 14.9457 14.723 14.8907 14.7139 14.3162C14.7066 13.8471 14.6938 13.6819 14.664 13.6719C14.642 13.6647 14.6235 13.6419 14.623 13.6214C14.6144 13.3208 13.9736 13.2674 13.6909 13.5436L13.584 13.648L13.568 14.5891L13.552 15.5302L13.408 15.5811C13.3288 15.6091 13.2567 15.6416 13.2477 15.6535C13.2283 15.679 12.9071 15.808 12.8628 15.808C12.8437 15.808 12.832 15.4076 12.832 14.752C12.832 14.1712 12.8211 13.696 12.8079 13.696C12.7945 13.696 12.7639 13.6515 12.7399 13.5971C12.6484 13.3905 12.3538 13.3018 12.0512 13.3898C11.9526 13.4183 11.872 13.4531 11.872 13.4669C11.872 13.4807 11.8444 13.5215 11.8107 13.5578C11.6929 13.6842 11.6804 13.8345 11.6802 15.1217L11.68 16.3714L11.512 16.4311C11.4196 16.4639 11.3368 16.5001 11.328 16.5116C11.3086 16.5369 11.0511 16.64 11.0074 16.64C10.9872 16.64 10.976 15.9356 10.976 14.672V12.704H16H21.024V14.6422ZM16.064 15.8338C16.064 15.8479 16.1695 15.8773 16.2986 15.899C16.4275 15.9207 16.5608 15.9576 16.5946 15.9811C16.6283 16.0047 16.746 16.0505 16.856 16.0831C16.966 16.1156 17.056 16.1522 17.056 16.1644C17.056 16.1767 17.1604 16.2188 17.288 16.258C17.4156 16.2972 17.5272 16.3395 17.536 16.3519C17.5448 16.3644 17.6312 16.4004 17.728 16.432C17.8248 16.4636 17.9112 16.4991 17.92 16.5107C17.9288 16.5224 18.0188 16.5576 18.12 16.589C18.2212 16.6203 18.304 16.6567 18.304 16.6699C18.304 16.6831 18.3652 16.7118 18.44 16.7337C18.5148 16.7556 18.6048 16.7919 18.64 16.8142C18.6752 16.8366 18.8012 16.8877 18.92 16.9278C19.0388 16.9679 19.136 17.0115 19.136 17.0249C19.136 17.0382 19.1756 17.0587 19.224 17.0704C19.2724 17.0822 19.3696 17.1185 19.44 17.1512C19.7137 17.2783 19.9889 17.3995 20.096 17.4402C20.1576 17.4636 20.2273 17.4975 20.2508 17.5156C20.2744 17.5338 20.3671 17.5744 20.4567 17.606C20.5465 17.6375 20.628 17.675 20.6379 17.6891C20.6479 17.7031 20.7192 17.7351 20.7963 17.7599C20.8734 17.7847 20.9542 17.8228 20.9759 17.8445C20.9975 17.8661 21.0892 17.908 21.1796 17.9376C21.27 17.9672 21.344 18.0041 21.344 18.0197C21.344 18.0353 21.362 18.0485 21.384 18.0491C21.406 18.0495 21.496 18.0863 21.584 18.1305C21.672 18.1747 21.8229 18.2414 21.9194 18.2785C22.0158 18.3157 22.1122 18.3636 22.1336 18.385C22.155 18.4064 22.2381 18.4433 22.3183 18.467C22.3984 18.4907 22.464 18.5193 22.464 18.5307C22.464 18.542 22.5324 18.5775 22.616 18.6094C22.6996 18.6413 22.7852 18.6847 22.8063 18.7056C22.8273 18.7267 22.9101 18.7633 22.9903 18.787C23.0704 18.8107 23.136 18.8395 23.136 18.8511C23.136 18.8627 23.2224 18.9045 23.328 18.944C23.4336 18.9835 23.52 19.0261 23.52 19.0387C23.52 19.0513 23.5992 19.0886 23.696 19.1215C23.7928 19.1543 23.872 19.1927 23.872 19.2067C23.872 19.2206 23.89 19.2321 23.912 19.2322C23.934 19.2323 24.0486 19.2819 24.1667 19.3425C24.2847 19.4031 24.4395 19.4701 24.5107 19.4914C24.5818 19.5127 24.64 19.5408 24.64 19.5539C24.64 19.5669 24.712 19.6035 24.8 19.6351C24.888 19.6667 24.96 19.7026 24.96 19.7147C24.96 19.7267 25.034 19.7608 25.1244 19.7904C25.2148 19.82 25.3076 19.863 25.3306 19.886C25.3536 19.9091 25.4381 19.9473 25.5183 19.971C25.5984 19.9947 25.664 20.0239 25.664 20.0361C25.664 20.0483 25.7576 20.0919 25.872 20.1328C25.9864 20.1739 26.08 20.2183 26.08 20.2317C26.08 20.2451 25.004 20.256 23.689 20.256H21.2979L21.2091 20.152C21.1602 20.0948 21.1201 20.0295 21.1201 20.007C21.12 19.9845 21.0984 19.9577 21.072 19.9476C21.0456 19.9375 21.024 19.9102 21.024 19.8869C21.024 19.8637 20.988 19.8163 20.944 19.7817C20.9 19.7471 20.864 19.7054 20.864 19.6891C20.864 19.6727 20.8067 19.6027 20.7366 19.5336C20.6664 19.4646 20.6088 19.3979 20.6086 19.3855C20.6076 19.3472 20.0521 18.8371 19.928 18.7605C19.8796 18.7307 19.84 18.6953 19.84 18.6819C19.84 18.6686 19.796 18.6349 19.7423 18.6071C19.6886 18.5794 19.6202 18.5351 19.5903 18.5087C19.4971 18.4263 19.2179 18.25 19.1433 18.2263C19.1041 18.2139 19.072 18.1931 19.072 18.1802C19.072 18.1672 19 18.1307 18.912 18.0991C18.824 18.0675 18.752 18.031 18.752 18.018C18.752 18.0051 18.6728 17.9675 18.576 17.9346C18.4792 17.9017 18.4 17.8652 18.4 17.8536C18.4 17.8419 18.31 17.8074 18.2 17.7768C18.09 17.7462 17.9856 17.71 17.968 17.6965C17.9299 17.6671 17.5784 17.5791 17.376 17.5483C17.2968 17.5362 17.2248 17.5159 17.216 17.5031C17.1383 17.39 14.9605 17.3879 14.88 17.5007C14.8712 17.5131 14.72 17.5494 14.544 17.5813C14.368 17.6133 14.1808 17.6581 14.128 17.6809C14.0752 17.7037 13.9528 17.7474 13.856 17.7779C13.7592 17.8085 13.6728 17.843 13.664 17.8546C13.6552 17.8662 13.5976 17.8943 13.536 17.9172C13.3562 17.9839 13.024 18.1516 13.024 18.1757C13.024 18.1879 12.9668 18.2167 12.8968 18.2398C12.8269 18.2628 12.7441 18.3048 12.7128 18.3331C12.6816 18.3614 12.5588 18.4483 12.44 18.5263C12.3212 18.6043 12.224 18.6803 12.224 18.6951C12.224 18.7099 12.1988 18.7309 12.168 18.7418C12.1077 18.7631 12.1056 18.7648 11.6402 19.2075C11.4688 19.3706 11.3284 19.5137 11.3282 19.5255C11.3281 19.5374 11.2884 19.5891 11.24 19.6404C11.1916 19.6918 11.1232 19.773 11.088 19.8209C11.0528 19.8689 11.0024 19.9327 10.976 19.9628C10.9496 19.9929 10.8996 20.0712 10.8647 20.1368L10.8015 20.256H8.29675C6.91083 20.256 5.79203 20.2437 5.79203 20.2283C5.79203 20.2031 5.95763 20.1319 6.13603 20.0804C6.17563 20.0691 6.20803 20.0483 6.20803 20.0343C6.20803 20.0203 6.28723 19.9839 6.38395 19.9535C6.48075 19.923 6.56715 19.8863 6.57603 19.872C6.58491 19.8577 6.67131 19.8211 6.76811 19.7906C6.86483 19.7602 6.94403 19.7242 6.94403 19.7106C6.94403 19.6971 7.02323 19.6611 7.12003 19.6306C7.21683 19.6002 7.29603 19.5645 7.29603 19.5513C7.29603 19.5382 7.37163 19.5027 7.46403 19.4727C7.62379 19.4206 7.78451 19.3524 8.14403 19.1841C8.23203 19.1429 8.33939 19.099 8.38251 19.0864C8.42571 19.0739 8.48075 19.0439 8.50483 19.0198C8.52891 18.9957 8.56851 18.976 8.59291 18.976C8.63315 18.976 9.04099 18.8059 9.36003 18.6559C9.43043 18.6228 9.52763 18.5862 9.57603 18.5744C9.62443 18.5627 9.66403 18.5416 9.66403 18.5275C9.66403 18.5135 9.74323 18.4771 9.84003 18.4466C9.93683 18.4162 10.016 18.3794 10.016 18.3649C10.016 18.3503 10.0763 18.3223 10.1499 18.3024C10.2235 18.2826 10.3712 18.2254 10.4779 18.1753C10.5847 18.1251 10.7116 18.0745 10.76 18.0627C10.8084 18.0507 10.848 18.029 10.848 18.0142C10.848 17.9994 10.9272 17.9623 11.024 17.9318C11.1208 17.9013 11.2 17.865 11.2 17.8511C11.2 17.8371 11.2792 17.8028 11.376 17.7747C11.4728 17.7465 11.552 17.7134 11.552 17.701C11.552 17.6887 11.6528 17.6443 11.776 17.6023C11.8992 17.5603 12 17.5168 12 17.5056C12 17.4944 12.0792 17.4583 12.176 17.4255C12.2728 17.3926 12.352 17.3566 12.352 17.3455C12.352 17.3343 12.4312 17.2983 12.528 17.2655C12.6248 17.2326 12.704 17.1967 12.704 17.1858C12.704 17.1749 12.7683 17.1471 12.8467 17.1239C12.9253 17.1007 13.0211 17.0543 13.0597 17.0208C13.0983 16.9874 13.1539 16.96 13.1835 16.96C13.213 16.96 13.308 16.9242 13.3944 16.8804C13.4808 16.8367 13.62 16.7763 13.7038 16.7461C13.7875 16.716 13.856 16.6806 13.856 16.6673C13.856 16.6541 13.9352 16.6183 14.032 16.5878C14.1288 16.5573 14.208 16.5225 14.208 16.5105C14.208 16.4985 14.2764 16.4629 14.36 16.4313C14.4436 16.3997 14.5192 16.3644 14.528 16.3529C14.5368 16.3414 14.634 16.2987 14.744 16.2581C14.854 16.2175 14.944 16.1744 14.944 16.1624C14.944 16.1505 15.0196 16.1138 15.112 16.081C15.2044 16.0482 15.2872 16.0112 15.296 15.9989C15.3175 15.9687 15.6568 15.872 15.741 15.872C15.7779 15.872 15.808 15.8576 15.808 15.84C15.808 15.8224 15.8656 15.808 15.936 15.808C16.0064 15.808 16.064 15.8196 16.064 15.8338ZM16.896 18.6229C17.0104 18.6418 17.1328 18.6703 17.168 18.6862C17.2032 18.7021 17.34 18.74 17.472 18.7704C17.604 18.8009 17.7192 18.836 17.728 18.8487C17.7368 18.8612 17.8448 18.9051 17.968 18.9463C18.0912 18.9875 18.2099 19.0386 18.2317 19.06C18.2535 19.0814 18.3219 19.1155 18.3837 19.1359C18.4455 19.1563 18.496 19.1845 18.496 19.1986C18.496 19.2127 18.5428 19.2427 18.6 19.2653C18.6572 19.2879 18.7328 19.3307 18.768 19.3606C18.8032 19.3904 18.8822 19.4421 18.9434 19.4754C19.0047 19.5087 19.0813 19.5684 19.1137 19.608C19.1462 19.6476 19.1853 19.68 19.2008 19.68C19.2239 19.68 19.3432 19.7859 19.5852 20.0212C19.6264 20.0612 19.9604 20.4246 20.0073 20.4804C20.0974 20.5875 20.288 20.8658 20.288 20.8901C20.288 20.9043 20.3137 20.9439 20.3451 20.978C20.3764 21.0121 20.429 21.0976 20.4618 21.168C20.4947 21.2384 20.5306 21.3032 20.5416 21.312C20.5527 21.3208 20.5898 21.3928 20.624 21.472C20.6583 21.5512 20.6947 21.6232 20.7051 21.632C20.7155 21.6408 20.7572 21.756 20.7979 21.888C20.8387 22.02 20.884 22.1433 20.8988 22.1619C20.9136 22.1806 20.9507 22.339 20.9811 22.5139C21.0116 22.6889 21.0518 22.8423 21.0703 22.8548C21.1387 22.9011 21.1337 29.8855 21.0654 29.9071C21.0338 29.9171 20.9504 29.9517 20.88 29.9842C20.8096 30.0167 20.698 30.0531 20.632 30.0651L20.512 30.0871V27.7331C20.512 25.9505 20.5025 25.3573 20.473 25.2895C20.2868 24.8629 19.5832 24.8975 19.4297 25.3408C19.402 25.4206 19.392 26.1122 19.392 27.9367V30.4238L19.2248 30.4459C19.1328 30.4582 19.0428 30.4798 19.0248 30.494C19.0068 30.5083 18.9452 30.5265 18.888 30.5344L18.784 30.5489V27.964C18.784 25.2368 18.7865 25.2855 18.6385 25.1375C18.4436 24.9426 18.058 24.9365 17.8412 25.1251C17.6367 25.3027 17.6489 25.1267 17.6393 28.0519L17.6306 30.7119L17.5113 30.7324C17.4457 30.7437 17.1292 30.7622 16.808 30.7735C16.4868 30.7848 16.224 30.8062 16.224 30.8211C16.224 30.8359 16.1232 30.848 16 30.848C15.8768 30.848 15.776 30.8359 15.776 30.8211C15.776 30.8063 15.5047 30.7851 15.173 30.7739C14.8413 30.7629 14.5461 30.7447 14.517 30.7335C14.4684 30.7148 14.4639 30.5023 14.4632 28.1166C14.4624 25.3191 14.4608 25.2911 14.2973 25.1414C13.9808 24.8517 13.4042 24.9924 13.3533 25.3718C13.3435 25.4445 13.3231 25.504 13.3078 25.504C13.2923 25.504 13.28 26.6232 13.28 28.0312V30.5584L13.176 30.5396C13.1188 30.5293 13.0104 30.5008 12.9349 30.4764C12.8595 30.452 12.7769 30.432 12.7515 30.432C12.7115 30.432 12.7039 30.0819 12.6966 27.8792C12.6891 25.666 12.6816 25.3187 12.64 25.2681C12.515 25.1161 12.3927 25.0226 12.2952 25.0043C12.1291 24.9731 11.8666 25.0084 11.8231 25.0679C11.8021 25.0965 11.7691 25.12 11.7496 25.12C11.7302 25.12 11.6972 25.1524 11.6763 25.192C11.6555 25.2316 11.6226 25.2743 11.6032 25.2868C11.5783 25.3031 11.5655 26.0085 11.5595 27.7128C11.5513 29.9742 11.5475 30.115 11.4955 30.0999C11.465 30.0911 11.3756 30.0671 11.297 30.0468C11.2183 30.0264 11.1251 29.9895 11.0899 29.9649C11.0546 29.9402 11.0002 29.92 10.9689 29.92C10.9148 29.92 10.912 29.7685 10.912 26.8C10.912 24.7414 10.9229 23.68 10.944 23.68C10.9629 23.68 10.976 23.5667 10.976 23.4041C10.976 23.1192 11.0581 22.4734 11.1015 22.4163C11.1151 22.3986 11.1599 22.2508 11.2011 22.088C11.2423 21.9252 11.2858 21.792 11.2976 21.792C11.3095 21.792 11.3442 21.7128 11.3746 21.616C11.4051 21.5192 11.4408 21.44 11.4539 21.44C11.4671 21.44 11.4973 21.3809 11.5212 21.3086C11.545 21.2363 11.5815 21.1707 11.6022 21.1627C11.623 21.1548 11.6663 21.0843 11.6985 21.0062C11.7308 20.9279 11.7682 20.864 11.7818 20.864C11.7953 20.864 11.8302 20.8172 11.8594 20.76C11.8885 20.7028 11.9315 20.6344 11.9548 20.608C11.9781 20.5816 12.0483 20.503 12.1107 20.4334C12.173 20.3637 12.224 20.2979 12.224 20.2872C12.224 20.2574 12.6361 19.8499 12.7255 19.7914C12.7688 19.763 12.8285 19.7187 12.8582 19.6931C13.063 19.5156 13.1137 19.4766 13.192 19.4359C13.2404 19.4109 13.2801 19.3799 13.2801 19.3672C13.2802 19.3544 13.345 19.3174 13.4241 19.2848C13.5033 19.2523 13.568 19.2159 13.568 19.2039C13.568 19.1919 13.64 19.1542 13.728 19.12C13.816 19.0859 13.888 19.0479 13.888 19.0355C13.888 19.0232 13.9636 18.9886 14.056 18.9585C14.1484 18.9284 14.2816 18.8782 14.352 18.8468C14.4224 18.8155 14.57 18.7712 14.68 18.7485C14.79 18.7258 14.88 18.6973 14.88 18.6852C14.88 18.6731 15.0276 18.646 15.208 18.6249C15.3884 18.6038 15.5576 18.5812 15.584 18.5747C15.6771 18.5519 16.6907 18.5891 16.896 18.6229ZM15.6897 19.5523C15.6177 19.6052 15.5498 19.6844 15.5388 19.7283C15.5278 19.7721 15.5047 19.808 15.4874 19.808C15.4702 19.808 15.456 19.8944 15.456 20C15.456 20.1067 15.4703 20.192 15.488 20.192C15.5056 20.192 15.52 20.2187 15.52 20.2514C15.52 20.3103 15.5982 20.4056 15.7466 20.5278C15.839 20.6039 16.2564 20.6228 16.28 20.552C16.2874 20.53 16.3114 20.512 16.3334 20.512C16.5215 20.512 16.6628 20.0785 16.5728 19.7777C16.4819 19.4745 15.9724 19.3444 15.6897 19.5523ZM14.3283 19.7759C14.2145 19.8102 14.016 19.9978 14.016 20.0711C14.016 20.1024 14.0016 20.128 13.984 20.128C13.9472 20.128 13.9396 20.5011 13.976 20.5174C13.9892 20.5232 14.0271 20.5812 14.06 20.6462C14.2048 20.9311 14.8137 20.9455 15.0163 20.6689C15.3447 20.2206 14.8752 19.6113 14.3283 19.7759ZM17.3035 19.7899C16.7205 19.9979 16.9039 20.864 17.5308 20.864C17.9642 20.864 18.1623 20.6237 18.1006 20.173C18.0563 19.8498 17.664 19.6612 17.3035 19.7899ZM12.9938 20.6499C12.588 20.8444 12.5991 21.5803 13.0094 21.6832C13.0527 21.6941 13.088 21.7158 13.088 21.7315C13.088 21.7472 13.16 21.76 13.248 21.76C13.336 21.76 13.408 21.7475 13.408 21.732C13.408 21.7166 13.4516 21.6953 13.505 21.6847C13.6223 21.6611 13.7579 21.5224 13.7823 21.401C13.792 21.352 13.8127 21.312 13.828 21.312C13.8435 21.312 13.856 21.2472 13.856 21.168C13.856 21.0888 13.8416 21.024 13.824 21.024C13.8064 21.024 13.792 21.0082 13.792 20.9888C13.792 20.9305 13.6907 20.736 13.6603 20.736C13.6447 20.736 13.6032 20.7072 13.568 20.672C13.4938 20.5978 13.1316 20.5838 12.9938 20.6499ZM18.56 20.6307C18.1495 20.7812 18.153 21.5907 18.5645 21.681C18.6148 21.6921 18.656 21.7143 18.656 21.7306C18.656 21.7467 18.728 21.76 18.816 21.76C18.904 21.76 18.976 21.7456 18.976 21.728C18.976 21.7104 18.9954 21.696 19.0191 21.696C19.0902 21.696 19.264 21.5981 19.2647 21.5577C19.2652 21.537 19.2936 21.484 19.328 21.44C19.396 21.3531 19.4222 20.96 19.36 20.96C19.3424 20.96 19.328 20.9383 19.328 20.9117C19.328 20.7098 18.8357 20.5295 18.56 20.6307ZM15.5221 21.286C15.3912 21.3024 15.2256 21.3419 15.1541 21.3739C15.0826 21.4059 14.9664 21.45 14.896 21.472C14.8256 21.4941 14.7464 21.5302 14.72 21.5522C14.6936 21.5743 14.6244 21.6164 14.5663 21.6459C14.4511 21.7043 14.3788 21.761 14.2474 21.896C14.2003 21.9444 14.1429 21.984 14.1199 21.984C14.0968 21.984 14.0686 22.0092 14.057 22.04C14.0454 22.0708 13.9991 22.1344 13.954 22.1814C13.7935 22.3486 13.7653 22.3852 13.7244 22.48C13.7016 22.5328 13.6601 22.5989 13.6323 22.6269C13.6044 22.6549 13.5611 22.7413 13.5362 22.8189C13.5111 22.8965 13.4822 22.9672 13.4718 22.976C13.4368 23.0056 13.376 23.2543 13.3553 23.453C13.3439 23.5613 13.3224 23.6576 13.3074 23.6669C13.2687 23.6907 13.2731 24.064 13.312 24.064C13.3296 24.064 13.344 24.0871 13.344 24.1152C13.344 24.1904 13.442 24.384 13.4801 24.384C13.4982 24.384 13.5293 24.4063 13.5492 24.4335C13.5709 24.4632 13.6579 24.4906 13.7656 24.5017C14.2301 24.5497 14.4046 24.3867 14.4486 23.864C14.4601 23.7276 14.4827 23.616 14.4987 23.616C14.5148 23.616 14.528 23.5875 14.528 23.5527C14.528 23.463 14.6263 23.2275 14.6945 23.154C14.7262 23.1199 14.752 23.0793 14.752 23.0639C14.752 22.8779 15.4896 22.4334 15.8 22.4323C15.8572 22.4322 15.904 22.4176 15.904 22.4C15.904 22.3824 15.9472 22.368 16 22.368C16.0528 22.368 16.096 22.3804 16.096 22.3955C16.096 22.4107 16.1772 22.4315 16.2765 22.4417C16.6035 22.4755 17.1987 22.8695 17.2892 23.112C17.3006 23.1428 17.3229 23.168 17.3387 23.168C17.3543 23.168 17.3931 23.2508 17.4246 23.352C17.4561 23.4532 17.4938 23.5439 17.5083 23.5535C17.5227 23.5631 17.5445 23.6999 17.5565 23.8575C17.5685 24.0151 17.594 24.1815 17.6131 24.2274C17.7765 24.6179 18.5432 24.6051 18.6423 24.2103C18.6537 24.165 18.6758 24.128 18.6915 24.128C18.7283 24.128 18.7288 23.6326 18.6919 23.5596C18.6766 23.5291 18.6411 23.3828 18.6132 23.2347C18.5854 23.0866 18.5502 22.957 18.5351 22.9467C18.5199 22.9364 18.4821 22.8633 18.4509 22.7841C18.4197 22.705 18.3848 22.633 18.3731 22.6241C18.3615 22.6153 18.3243 22.5576 18.2905 22.496C18.1716 22.2794 17.9427 22.018 17.7303 21.856C17.6726 21.812 17.6088 21.7608 17.5887 21.7423C17.5685 21.7236 17.5016 21.6804 17.44 21.6463C17.3784 21.612 17.3199 21.5731 17.3099 21.5597C17.2999 21.5463 17.2064 21.5059 17.1019 21.47C16.9975 21.434 16.8684 21.3847 16.8151 21.3603C16.5999 21.2615 15.9954 21.2268 15.5221 21.286ZM10.1746 21.496C10.1571 21.5444 10.1291 21.6128 10.1124 21.648C10.0638 21.7507 9.92147 22.3271 9.86747 22.64C9.82555 22.8831 9.81539 23.4336 9.80259 26.168C9.79403 28.0051 9.77523 29.408 9.75923 29.408C9.71971 29.408 9.55539 29.3339 9.53563 29.3071C9.52667 29.2949 9.44747 29.2567 9.35963 29.2223L9.20003 29.1595L9.18403 26.0012C9.16979 23.1875 9.16259 22.8387 9.11803 22.8055C9.09059 22.7848 9.05835 22.7421 9.04643 22.7105C9.03459 22.6789 8.98147 22.6379 8.92843 22.6194C8.87539 22.6009 8.83203 22.5727 8.83203 22.5569C8.83203 22.541 8.73123 22.528 8.60803 22.528C8.48483 22.528 8.38403 22.541 8.38403 22.5569C8.38403 22.5727 8.34195 22.6004 8.29051 22.6183C8.23907 22.6363 8.17923 22.6842 8.15747 22.7248C8.13571 22.7655 8.09859 22.818 8.07499 22.8416C8.03971 22.8769 8.03187 23.3867 8.03107 25.6903C8.03043 27.6119 8.01979 28.4783 7.99747 28.44C7.97955 28.4092 7.94667 28.384 7.92451 28.384C7.90227 28.384 7.85619 28.3581 7.82203 28.3264C7.78795 28.2947 7.70963 28.2407 7.64803 28.2064C7.58643 28.1721 7.52451 28.126 7.51043 28.104C7.49635 28.082 7.46395 28.064 7.43843 28.064C7.39819 28.064 7.39203 27.6223 7.39203 24.736V21.408H8.79923H10.2064L10.1746 21.496ZM24.608 24.736C24.608 27.6374 24.602 28.064 24.5611 28.064C24.5354 28.064 24.4988 28.0928 24.48 28.128C24.4612 28.1632 24.4315 28.192 24.4141 28.192C24.3967 28.192 24.3092 28.2424 24.2196 28.304C24.1301 28.3656 24.0443 28.416 24.029 28.416C24.0134 28.416 23.9973 27.1902 23.9925 25.64L23.984 22.864L23.8946 22.7471C23.8454 22.6828 23.7698 22.6214 23.7266 22.6105C23.6834 22.5997 23.648 22.5767 23.648 22.5594C23.648 22.5419 23.5491 22.528 23.424 22.528C23.3008 22.528 23.2 22.541 23.2 22.5569C23.2 22.5727 23.1579 22.6004 23.1065 22.6183C23.0551 22.6363 22.9953 22.6845 22.9737 22.7255C22.9521 22.7665 22.9186 22.8103 22.8992 22.8228C22.8741 22.8391 22.8615 23.7479 22.8554 25.9951L22.8468 29.1447L22.6554 29.2163C22.5502 29.2556 22.464 29.2973 22.464 29.3089C22.464 29.3205 22.4208 29.3463 22.368 29.3663L22.272 29.4025V26.2052C22.272 24.0951 22.2612 23.008 22.24 23.008C22.2224 23.008 22.208 22.9523 22.208 22.884C22.208 22.7239 22.0808 21.973 22.0501 21.952C22.0372 21.9432 21.9999 21.8316 21.9672 21.704C21.9344 21.5764 21.896 21.472 21.8819 21.472C21.8676 21.472 21.856 21.4576 21.856 21.44C21.856 21.4192 22.336 21.408 23.232 21.408H24.608V24.736ZM12.224 21.888C12.224 21.9056 12.1984 21.92 12.1671 21.92C11.9422 21.92 11.7623 22.4152 11.8848 22.6971C12.0592 23.0983 12.7956 23.1205 12.9111 22.728C12.9228 22.6884 12.9458 22.656 12.9622 22.656C12.9786 22.656 12.992 22.5711 12.992 22.4673C12.992 22.1817 12.8143 21.92 12.6203 21.92C12.5959 21.92 12.576 21.9056 12.576 21.888C12.576 21.8704 12.4968 21.856 12.4 21.856C12.3032 21.856 12.224 21.8704 12.224 21.888ZM19.456 21.8874C19.456 21.9047 19.4216 21.9275 19.3795 21.938C19.0765 22.0141 18.9964 22.6092 19.2545 22.8675C19.5041 23.1173 20.0967 23.0088 20.1744 22.6991C20.1847 22.6578 20.2074 22.624 20.2247 22.624C20.2419 22.624 20.256 22.5448 20.256 22.448C20.256 22.3512 20.2416 22.272 20.224 22.272C20.2064 22.272 20.192 22.2521 20.192 22.2277C20.192 22.2033 20.1718 22.1443 20.1471 22.0967C20.1021 22.0101 19.9682 21.92 19.8843 21.92C19.8599 21.92 19.84 21.9056 19.84 21.888C19.84 21.8703 19.7547 21.856 19.648 21.856C19.5424 21.856 19.456 21.8702 19.456 21.8874ZM15.6262 22.7824C15.2355 22.8919 14.848 23.2905 14.848 23.583C14.848 23.6187 14.8336 23.648 14.816 23.648C14.7974 23.648 14.784 23.7547 14.784 23.904C14.784 24.05 14.7975 24.16 14.8154 24.16C14.8327 24.16 14.8555 24.1944 14.866 24.2365C14.9834 24.7043 15.8015 24.5729 15.9163 24.0679C15.9722 23.8215 16.0528 23.804 16.083 24.0318C16.1268 24.362 16.3515 24.5297 16.7187 24.5063C16.9207 24.4935 17.152 24.349 17.152 24.2356C17.152 24.2146 17.1699 24.1914 17.1919 24.1841C17.2414 24.1675 17.2405 23.6509 17.1909 23.6203C17.1728 23.6091 17.148 23.5471 17.136 23.4827C17.1239 23.4183 17.0894 23.3391 17.0594 23.3068C17.0294 23.2745 16.9792 23.2048 16.9479 23.152C16.7504 22.8189 16.1224 22.6433 15.6262 22.7824ZM11.8429 23.4323C11.7653 23.4718 11.6861 23.5328 11.6669 23.568C11.6477 23.6032 11.6202 23.6407 11.6057 23.6514C11.5539 23.6893 11.5211 23.9314 11.5481 24.0759C11.6293 24.5107 12.1838 24.6718 12.52 24.3581C12.5684 24.313 12.608 24.2583 12.608 24.2367C12.608 24.2151 12.626 24.1914 12.648 24.184C12.6964 24.1679 12.7012 23.7192 12.6535 23.6857C12.6364 23.6738 12.5997 23.6279 12.5717 23.5839C12.443 23.381 12.089 23.3074 11.8429 23.4323ZM19.726 23.4174C19.4343 23.58 19.3487 23.7759 19.4235 24.1094C19.5585 24.712 20.472 24.6437 20.5068 24.0283C20.536 23.5114 20.1287 23.1927 19.726 23.4174Z" fill="white"/>
</svg>
